<svg width="2024" height="425" viewBox="0 0 2024 425" fill="none" xmlns="http://www.w3.org/2000/svg">
<path fill-rule="evenodd" clip-rule="evenodd" d="M0 60.4389L47.7889 111.039C96.9833 161.639 192.561 262.839 289.544 272.678C385.122 282.517 482.106 202.4 577.683 171.478C674.667 140.556 771.65 161.639 867.228 191.156C964.211 222.078 1059.79 262.839 1156.77 231.917C1252.35 202.4 1349.33 101.2 1446.32 111.039C1541.89 120.878 1638.88 241.756 1734.46 241.756C1831.44 241.756 1927.02 120.878 1976.21 60.4389L2024 0V424.478H1976.21C1927.02 424.478 1831.44 424.478 1734.46 424.478C1638.88 424.478 1541.89 424.478 1446.32 424.478C1349.33 424.478 1252.35 424.478 1156.77 424.478C1059.79 424.478 964.211 424.478 867.228 424.478C771.65 424.478 674.667 424.478 577.683 424.478C482.106 424.478 385.122 424.478 289.544 424.478C192.561 424.478 96.9833 424.478 47.7889 424.478H0V60.4389Z" fill="url(#paint0_linear)" style="mix-blend-mode:overlay"/>
<defs>
<linearGradient id="paint0_linear" x1="1012" y1="0" x2="1012" y2="424.478" gradientUnits="userSpaceOnUse">
<stop stop-color="#018C01"/>
<stop offset="1" stop-color="#43AE00" stop-opacity="0"/>
</linearGradient>
</defs>
</svg>
